<svg xmlns="http://www.w3.org/2000/svg" version="1.1" viewBox="-5.0 -10.0 110.0 135.0">
 <path d="m8.3125 4.8828h30.406c1.6914 0 3.0703 1.3789 3.0703 3.0703v30.406c0 1.6914-1.3789 3.0703-3.0703 3.0703l-30.406 0.003906c-1.6914 0-3.0703-1.3789-3.0703-3.0703l-0.003907-30.41c0-1.6914 1.3828-3.0703 3.0742-3.0703zm15.758 63.137c-0.64844 0-1.1719-0.52344-1.1719-1.1719 0-0.64844 0.52344-1.1719 1.1719-1.1719h8.8828c0.95312 0 1.7266 0.77344 1.7266 1.7266v8.8828c0 0.64844-0.52344 1.1719-1.1719 1.1719-0.64844 0-1.1719-0.52344-1.1719-1.1719v-8.2656zm52.969-53.684c-0.64844 0-1.1719-0.52344-1.1719-1.1719 0-0.64844 0.52344-1.1719 1.1719-1.1719h8.8828c0.46875 0 0.91406 0.19531 1.2188 0.51172 0.3125 0.3125 0.50781 0.74219 0.50781 1.2148v8.8828c0 0.64844-0.52344 1.1719-1.1719 1.1719-0.64844 0-1.1719-0.52344-1.1719-1.1719l0.003906-8.2656zm-52.969 0h8.2656v8.2656c0 0.64844 0.52344 1.1719 1.1719 1.1719 0.64844 0 1.1719-0.52344 1.1719-1.1719v-8.8828c0-0.47266-0.19531-0.90234-0.50781-1.2148-0.30469-0.3125-0.75-0.51172-1.2188-0.51172h-8.8828c-0.64844 0-1.1719 0.52344-1.1719 1.1719 0 0.64844 0.52344 1.1719 1.1719 1.1719zm59.754 68.418 4.5625 4.5625c0.45703 0.45703 0.45703 1.1992 0 1.6562-0.45703 0.45703-1.1992 0.45703-1.6562 0l-4.5938-4.5938c-3.75 2.8164-9 2.4336-12.316-0.87891-3.6797-3.6797-3.6797-9.6484 0-13.328 3.6797-3.6797 9.6484-3.6797 13.328 0 3.4062 3.4102 3.6992 8.8359 0.67578 12.582zm-2.332-10.918c-2.7656-2.7656-7.25-2.7656-10.012 0-2.7656 2.7656-2.7656 7.25 0 10.012 2.7656 2.7656 7.25 2.7656 10.012 0 2.7656-2.7617 2.7656-7.2461 0-10.012zm-20.211 20.938h30.406c0.39844 0 0.72656-0.32813 0.72656-0.72656l0.003907-30.406c0-0.39844-0.32812-0.72656-0.72656-0.72656l-30.41-0.003906c-0.39844 0-0.72656 0.32812-0.72656 0.72656v30.41c0 0.39844 0.32812 0.72656 0.72656 0.72656zm30.406 2.3438c1.6914 0 3.0703-1.3789 3.0703-3.0703l0.003907-30.406c0-1.6914-1.3789-3.0703-3.0703-3.0703l-30.41-0.003906c-1.6914 0-3.0703 1.3789-3.0703 3.0703v30.41c0 1.6914 1.3789 3.0703 3.0703 3.0703zm-83.375-2.3438h30.406c0.39844 0 0.72656-0.32813 0.72656-0.72656v-30.406c0-0.39844-0.32812-0.72656-0.72656-0.72656l-30.406-0.003906c-0.39844 0-0.72656 0.32812-0.72656 0.72656l-0.003907 30.41c0 0.39844 0.33203 0.72656 0.73047 0.72656zm30.406 2.3438c1.6914 0 3.0703-1.3789 3.0703-3.0703v-30.406c0-1.6914-1.3789-3.0703-3.0703-3.0703l-30.406-0.003906c-1.6914 0-3.0703 1.3789-3.0703 3.0703l-0.003907 30.41c0 1.6914 1.3789 3.0703 3.0703 3.0703zm22.562-90.234c-1.6914 0-3.0703 1.3789-3.0703 3.0703v30.406c0 1.6914 1.3789 3.0703 3.0703 3.0703h30.406c1.6914 0 3.0703-1.3789 3.0703-3.0703l0.003907-30.406c0-1.6914-1.3789-3.0703-3.0703-3.0703zm30.406 2.3438h-30.406c-0.39844 0-0.72656 0.32813-0.72656 0.72656v30.406c0 0.39844 0.32812 0.72656 0.72656 0.72656h30.406c0.39844 0 0.72656-0.32813 0.72656-0.72656l0.003907-30.406c0-0.39844-0.33203-0.72656-0.73047-0.72656zm-52.969 0h-30.406c-0.39844 0-0.72656 0.32813-0.72656 0.72656v30.406c0 0.39844 0.32812 0.72656 0.72656 0.72656l30.406 0.003906c0.39844 0 0.72656-0.32812 0.72656-0.72656v-30.41c0-0.39844-0.32812-0.72656-0.72656-0.72656z" fill-rule="evenodd"/>
<text x="0.0" y="117.5" font-size="5.0" font-weight="bold" font-family="Arbeit Regular, Helvetica, Arial-Unicode, Arial, Sans-serif" fill="#000000">Created by adi_sena</text><text x="0.0" y="122.5" font-size="5.0" font-weight="bold" font-family="Arbeit Regular, Helvetica, Arial-Unicode, Arial, Sans-serif" fill="#000000">from Noun Project</text></svg>