<svg xmlns="http://www.w3.org/2000/svg" xmlns:xlink="http://www.w3.org/1999/xlink" version="1.1" x="0px" y="0px" viewBox="0 0 100 125" enable-background="new 0 0 100 100" xml:space="preserve"><g><path fill="none" d="M25.252,46.113c4.424,0,8.022-3.54,8.022-7.89c0-4.348-3.674-8.022-8.022-8.022   c-4.352,0-7.892,3.598-7.892,8.022C17.36,42.573,20.9,46.113,25.252,46.113z"/><path fill="none" d="M49.996,43.054c5.022,0,8.958-3.934,8.958-8.954c0-4.946-3.936-8.82-8.958-8.82   c-4.862,0-8.818,3.956-8.818,8.82C41.178,39.12,45.052,43.054,49.996,43.054z"/><path fill="none" d="M74.744,46.113c4.424,0,8.024-3.54,8.024-7.89c0-4.424-3.6-8.022-8.024-8.022c-4.35,0-7.888,3.598-7.888,8.022   C66.856,42.573,70.394,46.113,74.744,46.113z"/><path fill="none" d="M27.47,64.254l0.001-0.004c0.029-0.094,0.065-0.181,0.095-0.274c1.349-4.248,3.092-8.083,5.084-11.161   c-2.125-1.537-4.5-2.257-7.398-2.257c-7.302,0-12.508,5.293-15.92,16.18l-2.263,7.057c-0.02,0.058-0.048,0.144,0.07,0.31   c0.25,0.346,0.84,0.616,1.349,0.616h16.338c-0.174-0.774-0.2-1.697,0.108-2.731l2.535-7.734   C27.469,64.256,27.47,64.255,27.47,64.254z"/><path fill="none" d="M90.797,66.731c-2.72-8.274-6.27-13.234-10.964-15.198c-0.084-0.035-0.172-0.059-0.256-0.092   c-0.31-0.122-0.621-0.241-0.941-0.337c-0.155-0.047-0.318-0.076-0.475-0.116c-0.256-0.066-0.509-0.139-0.772-0.189   c-0.848-0.162-1.729-0.242-2.645-0.242c-2.803,0-5.281,0.754-7.38,2.247c2.009,2.969,3.662,6.643,5.167,11.458l2.523,7.704   c0.286,0.954,0.35,1.893,0.198,2.755h16.39c0.428,0,0.971-0.268,1.209-0.596c0.128-0.18,0.098-0.274,0.082-0.318L90.797,66.731z"/><path fill="none" d="M67.785,65.681c-0.002-0.004-0.002-0.006-0.004-0.01c-0.471-1.516-0.974-2.935-1.51-4.257   c-3.165-7.81-7.467-12.235-13.034-13.436c-0.566-0.122-1.14-0.222-1.732-0.277c-0.494-0.046-0.997-0.069-1.509-0.069   c-8.03,0-13.845,5.905-17.783,18.051l-2.389,7.83c-0.07,0.186-0.092,0.31,0.038,0.502c0.27,0.396,0.932,0.706,1.509,0.706h37.254   c0.578,0,1.245-0.31,1.553-0.724c0.194-0.262,0.146-0.426,0.126-0.488L67.785,65.681z"/><path d="M69.738,65.062c-1.527-4.916-3.39-8.885-5.608-11.925c-3.326-4.56-7.45-7.031-12.439-7.48   c-0.554-0.05-1.119-0.075-1.695-0.075c-9.032,0-15.486,6.367-19.738,19.486l-2.365,7.766c-0.312,0.78-0.216,1.607,0.274,2.329   c0.65,0.96,1.939,1.607,3.204,1.607h37.254c1.241,0,2.495-0.608,3.196-1.549c0.522-0.7,0.68-1.519,0.44-2.321L69.738,65.062z    M70.178,73.997c-0.308,0.414-0.974,0.724-1.553,0.724H31.371c-0.576,0-1.239-0.31-1.509-0.706   c-0.13-0.192-0.108-0.316-0.038-0.502l2.389-7.83c3.938-12.146,9.753-18.051,17.783-18.051c0.512,0,1.015,0.023,1.509,0.069   c0.592,0.055,1.166,0.155,1.732,0.277c5.567,1.201,9.869,5.626,13.034,13.436c0.536,1.322,1.039,2.741,1.51,4.257   c0.002,0.004,0.002,0.006,0.004,0.01l2.519,7.828C70.324,73.571,70.372,73.735,70.178,73.997z"/><path d="M49.996,45.103c6.173,0,11.007-4.832,11.007-11.003c0-6.095-4.834-10.869-11.007-10.869   c-5.993,0-10.867,4.876-10.867,10.869C39.129,40.27,43.903,45.103,49.996,45.103z M49.996,25.279c5.022,0,8.958,3.874,8.958,8.82   c0,5.02-3.936,8.954-8.958,8.954c-4.944,0-8.818-3.934-8.818-8.954C41.178,29.235,45.134,25.279,49.996,25.279z"/><path d="M25.252,48.162c5.553,0,10.071-4.458,10.071-9.939c0-5.459-4.612-10.071-10.071-10.071c-5.481,0-9.941,4.518-9.941,10.071   C15.311,43.704,19.771,48.162,25.252,48.162z M25.252,30.201c4.348,0,8.022,3.674,8.022,8.022c0,4.35-3.598,7.89-8.022,7.89   c-4.352,0-7.892-3.54-7.892-7.89C17.36,33.799,20.9,30.201,25.252,30.201z"/><path d="M74.744,48.162c5.555,0,10.073-4.458,10.073-9.939c0-5.553-4.518-10.071-10.073-10.071c-5.479,0-9.937,4.518-9.937,10.071   C64.807,43.704,69.266,48.162,74.744,48.162z M74.744,30.201c4.424,0,8.024,3.598,8.024,8.022c0,4.35-3.6,7.89-8.024,7.89   c-4.35,0-7.888-3.54-7.888-7.89C66.856,33.799,70.394,30.201,74.744,30.201z"/><path d="M94.886,73.186l-2.129-7.051c-0.002-0.008-0.004-0.016-0.008-0.024c-3.89-11.844-9.779-17.603-18.005-17.603   c-3.636,0-6.809,1.109-9.437,3.298c-0.414,0.344-0.49,0.954-0.17,1.391c2.133,2.921,3.862,6.631,5.441,11.69l2.521,7.692   c0.302,1.008,0.242,1.929-0.176,2.659c-0.18,0.318-0.178,0.706,0.004,1.022c0.184,0.316,0.522,0.51,0.886,0.51h17.829   c1.093,0,2.245-0.582,2.869-1.447C94.992,74.659,95.12,73.891,94.886,73.186z M92.851,74.125c-0.238,0.328-0.78,0.596-1.209,0.596   h-16.39c0.152-0.862,0.088-1.801-0.198-2.755l-2.523-7.704c-1.505-4.814-3.158-8.488-5.167-11.458   c2.099-1.493,4.576-2.247,7.38-2.247c0.916,0,1.797,0.08,2.645,0.242c0.262,0.05,0.516,0.123,0.772,0.189   c0.158,0.041,0.32,0.07,0.475,0.116c0.32,0.096,0.631,0.215,0.941,0.337c0.084,0.033,0.173,0.057,0.256,0.092   c4.694,1.963,8.243,6.923,10.964,15.198l2.136,7.076C92.949,73.851,92.979,73.945,92.851,74.125z"/><path d="M26.891,72.602l2.529-7.716c0-0.004,0.002-0.008,0.004-0.014c1.419-4.548,3.304-8.594,5.451-11.698   c0.302-0.436,0.22-1.031-0.186-1.369c-2.663-2.219-5.751-3.298-9.437-3.298c-8.314,0-14.161,5.763-17.875,17.611L5.12,73.158   c-0.242,0.726-0.116,1.489,0.356,2.145c0.632,0.876,1.843,1.467,3.011,1.467h17.827c0.364,0,0.702-0.194,0.886-0.51   c0.182-0.314,0.184-0.704,0.004-1.021C26.875,74.659,26.555,73.727,26.891,72.602z M24.934,71.99   c-0.308,1.034-0.282,1.957-0.108,2.731H8.488c-0.508,0-1.099-0.27-1.349-0.616c-0.118-0.166-0.09-0.252-0.07-0.31l2.263-7.057   c3.412-10.887,8.618-16.18,15.92-16.18c2.897,0,5.273,0.72,7.398,2.257c-1.992,3.078-3.735,6.914-5.084,11.161   c-0.03,0.093-0.065,0.18-0.095,0.274l-0.001,0.004c0,0.001,0,0.001,0,0.001L24.934,71.99z"/></g><text x="0" y="115" fill="#000000" font-size="5px" font-weight="bold" font-family="'Helvetica Neue', Helvetica, Arial-Unicode, Arial, Sans-serif">Created by Alena Artemova</text><text x="0" y="120" fill="#000000" font-size="5px" font-weight="bold" font-family="'Helvetica Neue', Helvetica, Arial-Unicode, Arial, Sans-serif">from the Noun Project</text></svg>