<svg xmlns="http://www.w3.org/2000/svg" data-name="Layer 1" viewBox="0 0 100 125" x="0px" y="0px"><path d="M82.91,34.34a7.44,7.44,0,0,0-7.86-7.22H61V4.53H10V64.06c0,.43.06,4.32,2.42,6.69a6,6,0,0,0,4.35,1.75v.07H32.08V93.92H83.14ZM14,64.06V8.53H56.8V27.12H29.1v0c-.29,0-.57,0-.88,0-6.07,0-7.83,5.31-7.92,8.18V64c0,.46-.23,4.49-3.56,4.49C14,68.5,14,64.24,14,64.06Zm9.19,4.51a10.78,10.78,0,0,0,1.14-4.51V35.37c0-.71.36-4.25,3.92-4.25s3.83,2.55,3.86,3.26V68.57ZM36.08,89.92V34.34a7.52,7.52,0,0,0-.85-3.22H75.05c3.44,0,3.82,2.55,3.86,3.27l.22,55.53Z"/><path d="M60.88,41.77H43.38a1.5,1.5,0,0,0,0,3h17.5a1.5,1.5,0,0,0,0-3Z"/><path d="M60.88,54.26H43.38a1.5,1.5,0,0,0,0,3h17.5a1.5,1.5,0,0,0,0-3Z"/><path d="M60.88,66.75H43.38a1.5,1.5,0,1,0,0,3h17.5a1.5,1.5,0,0,0,0-3Z"/><path d="M60.88,79.23H43.38a1.5,1.5,0,0,0,0,3h17.5a1.5,1.5,0,1,0,0-3Z"/><path d="M72.12,41.77H66.87a1.5,1.5,0,0,0,0,3h5.25a1.5,1.5,0,0,0,0-3Z"/><path d="M38.52,11.92H21a1.5,1.5,0,0,0,0,3H38.52a1.5,1.5,0,0,0,0-3Z"/><path d="M49.75,11.92H44.51a1.5,1.5,0,0,0,0,3h5.24a1.5,1.5,0,0,0,0-3Z"/><path d="M38.52,21.9H21a1.5,1.5,0,1,0,0,3H38.52a1.5,1.5,0,0,0,0-3Z"/><path d="M49.75,21.9H44.51a1.5,1.5,0,0,0,0,3h5.24a1.5,1.5,0,0,0,0-3Z"/><path d="M72.12,54.26H66.87a1.5,1.5,0,0,0,0,3h5.25a1.5,1.5,0,0,0,0-3Z"/><path d="M72.12,66.75H66.87a1.5,1.5,0,0,0,0,3h5.25a1.5,1.5,0,0,0,0-3Z"/><path d="M72.12,79.23H66.87a1.5,1.5,0,0,0,0,3h5.25a1.5,1.5,0,0,0,0-3Z"/><text x="0" y="115" fill="#000000" font-size="5px" font-weight="bold" font-family="'Helvetica Neue', Helvetica, Arial-Unicode, Arial, Sans-serif">Created by Aidan Stonehouse</text><text x="0" y="120" fill="#000000" font-size="5px" font-weight="bold" font-family="'Helvetica Neue', Helvetica, Arial-Unicode, Arial, Sans-serif">from the Noun Project</text></svg>