<svg xmlns="http://www.w3.org/2000/svg" version="1.1" viewBox="-5.0 -10.0 110.0 135.0">
 <path d="m50 7.25-11.188 4.7617 7.8477 3.3398c0.75781 0.32031 1.1133 1.2031 0.78906 1.9609-0.32031 0.75781-1.2031 1.1133-1.9609 0.78906l-10.492-4.4688-11.543 4.9102 42.098 17.488 9.3672-3.9883-20.613-10.199c-0.74219-0.36719-1.043-1.2617-0.67969-2.0039 0.36719-0.74219 1.2617-1.043 2.0039-0.67969l22.918 11.34 13.055-5.5547-41.594-17.703zm-30.406 12.938-11.191 4.7656 41.594 17.703 11.695-4.9766-42.098-17.488zm-15.496 3.3438 45.316-19.289c0.35938-0.15234 0.78125-0.16406 1.1719 0l45.301 19.281c0.59766 0.19922 1.0273 0.76172 1.0273 1.4258v53.262c-0.003906 0.61719-0.38672 1.1953-1.0039 1.4102l-6.1367 2.1836c-0.77734 0.27734-1.6367-0.13672-1.9102-0.91016-0.27734-0.77734 0.13672-1.6367 0.91016-1.9102l5.1367-1.8281v-49.945l-13.91 5.9219 0.22656 14.801c0.007813 0.64062-0.39062 1.1875-0.94922 1.4102l-12.32 4.8281c-0.76953 0.30078-1.6367-0.082031-1.9375-0.84766-0.058593-0.15234-0.09375-0.30859-0.097656-0.46094l-0.73828-12.996-12.68 5.3984v46.984l28.16-10.016c0.77734-0.27734 1.6367 0.13672 1.9102 0.91016 0.27734 0.77734-0.13672 1.6367-0.91016 1.9102l-30.059 10.695c-0.18359 0.078125-0.38281 0.12109-0.59375 0.12109-0.21094 0-0.41016-0.046875-0.59375-0.12109l-45.32-16.121c-0.61328-0.21484-1-0.79688-1-1.4102l-0.003906-28.871c0-0.82812 0.67188-1.5 1.5-1.5s1.5 0.67188 1.5 1.5v27.816l42.414 15.09v-46.984l-42.414-18.051v12.484c0 0.82812-0.67188 1.5-1.5 1.5s-1.5-0.67188-1.5-1.5v-14.746c0-0.65625 0.42188-1.2148 1.0117-1.418zm72.938 10.867-9.9258 4.2227 0.68359 12.012 9.4336-3.6953zm8.0352 49.086c-0.77734 0.27734-1.6367-0.13672-1.9102-0.91016-0.27734-0.77734 0.13672-1.6367 0.91016-1.9102l0.29297-0.10547c0.77734-0.27734 1.6367 0.13672 1.9102 0.91016 0.27734 0.77734-0.13672 1.6367-0.91016 1.9102zm-78.98-38.809c0 0.82812-0.67188 1.5-1.5 1.5s-1.5-0.67188-1.5-1.5v-0.3125c0-0.82812 0.67188-1.5 1.5-1.5s1.5 0.67188 1.5 1.5zm43.703-24.746c-0.75781-0.32031-1.1133-1.2031-0.78906-1.9609 0.32031-0.75781 1.2031-1.1133 1.9609-0.78906l0.28906 0.12109c0.75781 0.32031 1.1133 1.2031 0.78906 1.9609-0.32031 0.75781-1.2031 1.1133-1.9609 0.78906z"/>
<text x="0.0" y="117.5" font-size="5.0" font-weight="bold" font-family="Arbeit Regular, Helvetica, Arial-Unicode, Arial, Sans-serif" fill="#000000">Created by Lusi Astianah</text><text x="0.0" y="122.5" font-size="5.0" font-weight="bold" font-family="Arbeit Regular, Helvetica, Arial-Unicode, Arial, Sans-serif" fill="#000000">from Noun Project</text></svg>